<mxfile host="drawio-plugin" modified="2023-10-15T13:55:19.565Z" agent="5.0 (Windows NT 10.0; Win64; x64) AppleWebKit/537.36 (KHTML, like Gecko) Chrome/111.0.0.0 Safari/537.36" etag="yers-uoPvtMTmX-vgRCH" version="20.5.3" type="embed"><diagram id="23iRSUPoRavnBvh4doch" name="Page-1"><mxGraphModel dx="871" dy="600" grid="1" gridSize="10" guides="1" tooltips="1" connect="1" arrows="1" fold="1" page="1" pageScale="1" pageWidth="827" pageHeight="1169" math="0" shadow="0"><root><mxCell id="0"/><mxCell id="1" parent="0"/><mxCell id="4" value="Gracz" style="shape=umlActor;verticalLabelPosition=bottom;verticalAlign=top;html=1;outlineConnect=0;" vertex="1" parent="1"><mxGeometry x="30" y="280" width="30" height="60" as="geometry"/></mxCell><mxCell id="7" value="Zagranie w grę" style="ellipse;whiteSpace=wrap;html=1;" vertex="1" parent="1"><mxGeometry x="440" y="270" width="120" height="80" as="geometry"/></mxCell><mxCell id="9" value="Komputer" style="shape=umlActor;verticalLabelPosition=bottom;verticalAlign=top;html=1;outlineConnect=0;fontColor=default;" vertex="1" parent="1"><mxGeometry x="120" y="280" width="30" height="60" as="geometry"/></mxCell><mxCell id="15" value="" style="ellipse;html=1;shape=endState;fillColor=#000000;strokeColor=#ff0000;fontColor=default;" vertex="1" parent="1"><mxGeometry x="210" y="800" width="30" height="30" as="geometry"/></mxCell><mxCell id="17" value="Koniec gry" style="text;html=1;strokeColor=none;fillColor=none;align=center;verticalAlign=middle;whiteSpace=wrap;rounded=0;fontColor=default;" vertex="1" parent="1"><mxGeometry x="195" y="840" width="60" height="30" as="geometry"/></mxCell><mxCell id="18" value="" style="ellipse;html=1;shape=startState;fillColor=#000000;strokeColor=#ff0000;fontColor=default;" vertex="1" parent="1"><mxGeometry x="60" y="510" width="30" height="30" as="geometry"/></mxCell><mxCell id="19" value="" style="edgeStyle=orthogonalEdgeStyle;html=1;verticalAlign=bottom;endArrow=open;endSize=8;strokeColor=#ff0000;rounded=0;fontColor=default;" edge="1" source="18" parent="1"><mxGeometry relative="1" as="geometry"><mxPoint x="180" y="525" as="targetPoint"/><Array as="points"><mxPoint x="180" y="525"/></Array></mxGeometry></mxCell><mxCell id="20" value="Gracze wchodzą do gry" style="text;html=1;strokeColor=none;fillColor=none;align=center;verticalAlign=middle;whiteSpace=wrap;rounded=0;fontColor=default;" vertex="1" parent="1"><mxGeometry x="20" y="470" width="110" height="30" as="geometry"/></mxCell><mxCell id="22" value="" style="rhombus;whiteSpace=wrap;html=1;fontColor=default;" vertex="1" parent="1"><mxGeometry x="180" y="485" width="80" height="80" as="geometry"/></mxCell><mxCell id="23" value="Sprawdzanie czy każdy gracz posiada jakieś środki do wzięcia udziału w grze" style="text;html=1;strokeColor=none;fillColor=none;align=center;verticalAlign=middle;whiteSpace=wrap;rounded=0;fontColor=default;" vertex="1" parent="1"><mxGeometry x="133.75" y="420" width="172.5" height="60" as="geometry"/></mxCell><mxCell id="25" value="" style="endArrow=classic;html=1;rounded=0;fontColor=default;entryX=0.5;entryY=0;entryDx=0;entryDy=0;exitX=0.5;exitY=1;exitDx=0;exitDy=0;" edge="1" parent="1" source="22" target="15"><mxGeometry width="50" height="50" relative="1" as="geometry"><mxPoint x="150" y="610" as="sourcePoint"/><mxPoint x="560" y="400" as="targetPoint"/><Array as="points"/></mxGeometry></mxCell><mxCell id="26" value="Jakiś gracz nie ma środków" style="text;html=1;strokeColor=none;fillColor=none;align=center;verticalAlign=middle;whiteSpace=wrap;rounded=0;fontColor=default;" vertex="1" parent="1"><mxGeometry x="180" y="585" width="90" height="30" as="geometry"/></mxCell><mxCell id="27" value="" style="endArrow=classic;html=1;rounded=0;fontColor=default;exitX=1;exitY=0.5;exitDx=0;exitDy=0;" edge="1" parent="1" source="22"><mxGeometry width="50" height="50" relative="1" as="geometry"><mxPoint x="510" y="430" as="sourcePoint"/><mxPoint x="445" y="525" as="targetPoint"/></mxGeometry></mxCell><mxCell id="29" value="każdy ma pieniądze" style="text;html=1;strokeColor=none;fillColor=none;align=center;verticalAlign=middle;whiteSpace=wrap;rounded=0;fontColor=default;" vertex="1" parent="1"><mxGeometry x="306.25" y="490" width="60" height="30" as="geometry"/></mxCell><mxCell id="30" value="" style="rhombus;whiteSpace=wrap;html=1;fontColor=default;" vertex="1" parent="1"><mxGeometry x="650" y="580" width="80" height="80" as="geometry"/></mxCell><mxCell id="32" value="" style="endArrow=none;html=1;rounded=0;fontColor=default;exitX=0.5;exitY=0.5;exitDx=0;exitDy=0;exitPerimeter=0;" edge="1" parent="1" source="4" target="33"><mxGeometry width="50" height="50" relative="1" as="geometry"><mxPoint x="220" y="300" as="sourcePoint"/><mxPoint x="120" y="140" as="targetPoint"/></mxGeometry></mxCell><mxCell id="33" value="Ustalenie wysokości zakładu" style="ellipse;whiteSpace=wrap;html=1;fontColor=default;" vertex="1" parent="1"><mxGeometry x="60" y="100" width="120" height="80" as="geometry"/></mxCell><mxCell id="35" value="" style="endArrow=none;html=1;rounded=0;fontColor=default;entryX=0;entryY=0.5;entryDx=0;entryDy=0;exitX=0.5;exitY=0.5;exitDx=0;exitDy=0;exitPerimeter=0;" edge="1" parent="1" source="9" target="7"><mxGeometry width="50" height="50" relative="1" as="geometry"><mxPoint x="220" y="290" as="sourcePoint"/><mxPoint x="270" y="240" as="targetPoint"/></mxGeometry></mxCell><mxCell id="36" value="" style="endArrow=classic;html=1;rounded=0;fontColor=default;entryX=0.5;entryY=0.5;entryDx=0;entryDy=0;entryPerimeter=0;exitX=0.5;exitY=0.5;exitDx=0;exitDy=0;exitPerimeter=0;" edge="1" parent="1" source="4" target="9"><mxGeometry width="50" height="50" relative="1" as="geometry"><mxPoint x="220" y="290" as="sourcePoint"/><mxPoint x="270" y="240" as="targetPoint"/></mxGeometry></mxCell><mxCell id="37" value="Gracz ustawia wysokość zakładu" style="rounded=1;whiteSpace=wrap;html=1;fontColor=default;" vertex="1" parent="1"><mxGeometry x="450" y="495" width="120" height="60" as="geometry"/></mxCell><mxCell id="41" value="" style="endArrow=classic;html=1;rounded=0;fontColor=default;exitX=1;exitY=0.5;exitDx=0;exitDy=0;entryX=0.5;entryY=0;entryDx=0;entryDy=0;" edge="1" parent="1" source="37" target="30"><mxGeometry width="50" height="50" relative="1" as="geometry"><mxPoint x="630" y="500" as="sourcePoint"/><mxPoint x="680" y="450" as="targetPoint"/><Array as="points"><mxPoint x="690" y="525"/></Array></mxGeometry></mxCell><mxCell id="42" value="Sprawdzenie czy zakład jest możliwy do wykonania&lt;br&gt;" style="text;html=1;strokeColor=none;fillColor=none;align=center;verticalAlign=middle;whiteSpace=wrap;rounded=0;fontColor=default;" vertex="1" parent="1"><mxGeometry x="620" y="490" width="110" height="30" as="geometry"/></mxCell><mxCell id="43" value="" style="endArrow=classic;html=1;rounded=0;fontColor=default;entryX=0.436;entryY=0.986;entryDx=0;entryDy=0;entryPerimeter=0;exitX=0;exitY=0.5;exitDx=0;exitDy=0;" edge="1" parent="1" source="30" target="37"><mxGeometry width="50" height="50" relative="1" as="geometry"><mxPoint x="535" y="645" as="sourcePoint"/><mxPoint x="585" y="595" as="targetPoint"/><Array as="points"><mxPoint x="502" y="620"/></Array></mxGeometry></mxCell><mxCell id="44" value="Nie jest" style="text;html=1;strokeColor=none;fillColor=none;align=center;verticalAlign=middle;whiteSpace=wrap;rounded=0;fontColor=default;" vertex="1" parent="1"><mxGeometry x="560" y="590" width="60" height="30" as="geometry"/></mxCell><mxCell id="45" style="edgeStyle=orthogonalEdgeStyle;rounded=0;orthogonalLoop=1;jettySize=auto;html=1;exitX=0.5;exitY=1;exitDx=0;exitDy=0;fontColor=default;" edge="1" parent="1" source="17" target="17"><mxGeometry relative="1" as="geometry"/></mxCell><mxCell id="46" value="" style="endArrow=classic;html=1;rounded=0;fontColor=default;exitX=0.5;exitY=1;exitDx=0;exitDy=0;" edge="1" parent="1" source="30"><mxGeometry width="50" height="50" relative="1" as="geometry"><mxPoint x="300" y="640" as="sourcePoint"/><mxPoint x="690" y="760" as="targetPoint"/></mxGeometry></mxCell><mxCell id="48" value="Jest" style="text;html=1;align=center;verticalAlign=middle;resizable=0;points=[];autosize=1;strokeColor=none;fillColor=none;fontColor=default;" vertex="1" parent="1"><mxGeometry x="665" y="690" width="50" height="30" as="geometry"/></mxCell><mxCell id="49" value="Rozegranie gry i przekazanie pieniędzy do zwycięscy" style="rounded=1;whiteSpace=wrap;html=1;fontColor=default;" vertex="1" parent="1"><mxGeometry x="630" y="770" width="120" height="60" as="geometry"/></mxCell><mxCell id="50" value="" style="endArrow=classic;html=1;rounded=0;fontColor=default;exitX=0;exitY=0.5;exitDx=0;exitDy=0;entryX=0.5;entryY=0;entryDx=0;entryDy=0;" edge="1" parent="1" source="49" target="22"><mxGeometry width="50" height="50" relative="1" as="geometry"><mxPoint x="320" y="840" as="sourcePoint"/><mxPoint x="320" y="380" as="targetPoint"/><Array as="points"><mxPoint x="220" y="350"/></Array></mxGeometry></mxCell></root></mxGraphModel></diagram></mxfile>